<svg width="671" height="119" viewBox="0 0 671 119" fill="none" xmlns="http://www.w3.org/2000/svg">
<path d="M71.1 33.5C73.7 34.3 75.9333 36.0667 77.8 38.8C79.6667 41.4667 80.6 44.5333 80.6 48C80.6 55.4 78.2 60.9333 73.4 64.6C68.6 68.2 61.6 70 52.4 70H11.2C10.4667 70 9.83333 69.7333 9.3 69.2C8.76667 68.6667 8.5 68.0333 8.5 67.3V2.7C8.5 1.96666 8.76667 1.33333 9.3 0.799997C9.83333 0.266662 10.4667 -4.76837e-06 11.2 -4.76837e-06H51.4C60.8667 -4.76837e-06 67.8333 1.73333 72.3 5.2C76.8333 8.6 79.1 13.7667 79.1 20.7V21C79.1 24.2 78.2333 26.9333 76.5 29.2C74.7667 31.4667 72.9667 32.9 71.1 33.5ZM52 21.6C52 20.4 51.6333 19.3667 50.9 18.5C50.2333 17.6333 49.2333 17.2 47.9 17.2H34.5V26.3H47.9C49.2333 26.3 50.2333 25.8333 50.9 24.9C51.6333 23.9 52 22.8 52 21.6ZM49 52.8C50.5333 52.8 51.6667 52.3 52.4 51.3C53.2 50.2333 53.6 49.0667 53.6 47.8V47.7C53.6 46.4333 53.1667 45.3333 52.3 44.4C51.5 43.4667 50.4 43 49 43H34.5V52.8H49ZM149.861 50.5C150.594 50.5 151.228 50.7667 151.761 51.3C152.294 51.8333 152.561 52.4667 152.561 53.2V67.3C152.561 68.0333 152.294 68.6667 151.761 69.2C151.228 69.7333 150.594 70 149.861 70H86.6609C85.9276 70 85.2943 69.7333 84.7609 69.2C84.2276 68.6667 83.9609 68.0333 83.9609 67.3V2.7C83.9609 1.96666 84.2276 1.33333 84.7609 0.799997C85.2943 0.266662 85.9276 -4.76837e-06 86.6609 -4.76837e-06H148.861C149.594 -4.76837e-06 150.228 0.266662 150.761 0.799997C151.294 1.33333 151.561 1.96666 151.561 2.7V16.8C151.561 17.5333 151.294 18.1667 150.761 18.7C150.228 19.2333 149.594 19.5 148.861 19.5H109.961V25.8H143.361C144.094 25.8 144.728 26.0667 145.261 26.6C145.794 27.1333 146.061 27.7667 146.061 28.5V41.5C146.061 42.2333 145.794 42.8667 145.261 43.4C144.728 43.9333 144.094 44.2 143.361 44.2H109.961V50.5H149.861ZM223.722 -4.76837e-06C224.455 -4.76837e-06 225.089 0.266662 225.622 0.799997C226.155 1.33333 226.422 1.96666 226.422 2.7V67.3C226.422 68.0333 226.155 68.6667 225.622 69.2C225.089 69.7333 224.455 70 223.722 70H207.622C206.022 70 204.689 69.3 203.622 67.9L181.822 40.1V67.3C181.822 68.0333 181.555 68.6667 181.022 69.2C180.489 69.7333 179.855 70 179.122 70H160.522C159.789 70 159.155 69.7333 158.622 69.2C158.089 68.6667 157.822 68.0333 157.822 67.3V2.7C157.822 1.96666 158.089 1.33333 158.622 0.799997C159.155 0.266662 159.789 -4.76837e-06 160.522 -4.76837e-06H176.722C178.322 -4.76837e-06 179.622 0.666663 180.622 2L202.422 32.1V2.7C202.422 1.96666 202.689 1.33333 203.222 0.799997C203.755 0.266662 204.389 -4.76837e-06 205.122 -4.76837e-06H223.722ZM336.844 -4.76837e-06C337.577 -4.76837e-06 338.21 0.266662 338.744 0.799997C339.277 1.33333 339.544 1.96666 339.544 2.7V18.8C339.544 19.5333 339.277 20.1667 338.744 20.7C338.21 21.2333 337.577 21.5 336.844 21.5H315.344V67.3C315.344 68.0333 315.077 68.6667 314.544 69.2C314.01 69.7333 313.377 70 312.644 70H292.044C291.31 70 290.677 69.7333 290.144 69.2C289.61 68.6667 289.344 68.0333 289.344 67.3V21.5H267.844C267.11 21.5 266.477 21.2333 265.944 20.7C265.41 20.1667 265.144 19.5333 265.144 18.8V2.7C265.144 1.96666 265.41 1.33333 265.944 0.799997C266.477 0.266662 267.11 -4.76837e-06 267.844 -4.76837e-06H336.844ZM417.005 66.9C417.138 67.1667 417.205 67.4667 417.205 67.8C417.205 68.4 416.971 68.9333 416.505 69.4C416.105 69.8 415.605 70 415.005 70H392.305C391.371 70 390.505 69.7667 389.705 69.3C388.971 68.8333 388.438 68.2333 388.105 67.5L379.305 47.7H370.905V67.3C370.905 68.0333 370.638 68.6667 370.105 69.2C369.571 69.7333 368.938 70 368.205 70H346.605C345.871 70 345.238 69.7333 344.705 69.2C344.171 68.6667 343.905 68.0333 343.905 67.3V2.7C343.905 1.96666 344.171 1.33333 344.705 0.799997C345.238 0.266662 345.871 -4.76837e-06 346.605 -4.76837e-06H385.505C391.505 -4.76837e-06 396.738 0.966663 401.205 2.9C405.738 4.83333 409.205 7.63333 411.605 11.3C414.005 14.9667 415.205 19.2667 415.205 24.2C415.205 33.2667 411.705 39.8333 404.705 43.9L417.005 66.9ZM383.405 29.2C384.871 29.2 386.005 28.7333 386.805 27.8C387.605 26.8 388.005 25.5667 388.005 24.1C388.005 22.6333 387.605 21.3667 386.805 20.3C386.071 19.1667 384.938 18.6 383.405 18.6H370.905V29.2H383.405ZM484.666 50.5C485.399 50.5 486.032 50.7667 486.566 51.3C487.099 51.8333 487.366 52.4667 487.366 53.2V67.3C487.366 68.0333 487.099 68.6667 486.566 69.2C486.032 69.7333 485.399 70 484.666 70H421.466C420.732 70 420.099 69.7333 419.566 69.2C419.032 68.6667 418.766 68.0333 418.766 67.3V2.7C418.766 1.96666 419.032 1.33333 419.566 0.799997C420.099 0.266662 420.732 -4.76837e-06 421.466 -4.76837e-06H483.666C484.399 -4.76837e-06 485.032 0.266662 485.566 0.799997C486.099 1.33333 486.366 1.96666 486.366 2.7V16.8C486.366 17.5333 486.099 18.1667 485.566 18.7C485.032 19.2333 484.399 19.5 483.666 19.5H444.766V25.8H478.166C478.899 25.8 479.532 26.0667 480.066 26.6C480.599 27.1333 480.866 27.7667 480.866 28.5V41.5C480.866 42.2333 480.599 42.8667 480.066 43.4C479.532 43.9333 478.899 44.2 478.166 44.2H444.766V50.5H484.666Z" fill="black"/>
<path d="M21.9 118.7C17.5 118.7 14 117.5 11.4 115.1C8.8 112.667 7.5 109.2 7.5 104.7V96.3C7.5 91.8 8.8 88.35 11.4 85.95C14 83.5167 17.5 82.3 21.9 82.3C26.3 82.3 29.8 83.5167 32.4 85.95C35 88.35 36.3 91.8 36.3 96.3V104.7C36.3 109.2 35 112.667 32.4 115.1C29.8 117.5 26.3 118.7 21.9 118.7ZM21.9 112.8C24.3667 112.8 26.2833 112.083 27.65 110.65C29.0167 109.217 29.7 107.3 29.7 104.9V96.1C29.7 93.7 29.0167 91.7833 27.65 90.35C26.2833 88.9167 24.3667 88.2 21.9 88.2C19.4667 88.2 17.55 88.9167 16.15 90.35C14.7833 91.7833 14.1 93.7 14.1 96.1V104.9C14.1 107.3 14.7833 109.217 16.15 110.65C17.55 112.083 19.4667 112.8 21.9 112.8ZM42.0891 118V83H48.6891V112H64.6891V118H42.0891ZM72.4758 118V105.95L60.5758 83H67.9258L75.3258 98H76.2258L83.6258 83H90.9758L79.0758 105.95V118H72.4758ZM94.677 118V83H106.927L112.977 113.5H113.877L119.927 83H132.177V118H125.777V87.85H124.877L118.877 118H107.977L101.977 87.85H101.077V118H94.677ZM138.769 118V83H153.169C155.369 83 157.302 83.45 158.969 84.35C160.669 85.2167 161.985 86.45 162.919 88.05C163.885 89.65 164.369 91.55 164.369 93.75V94.45C164.369 96.6167 163.869 98.5167 162.869 100.15C161.902 101.75 160.569 103 158.869 103.9C157.202 104.767 155.302 105.2 153.169 105.2H145.369V118H138.769ZM145.369 99.2H152.519C154.085 99.2 155.352 98.7667 156.319 97.9C157.285 97.0333 157.769 95.85 157.769 94.35V93.85C157.769 92.35 157.285 91.1667 156.319 90.3C155.352 89.4333 154.085 89 152.519 89H145.369V99.2ZM168.945 118V83H175.545V118H168.945ZM179.728 118L188.928 83H200.428L209.628 118H202.828L200.928 110.3H188.428L186.528 118H179.728ZM189.978 104.2H199.378L195.128 87.15H194.228L189.978 104.2ZM212.818 118V112.2H217.418V88.8H212.818V83H227.218C231.918 83 235.484 84.2 237.918 86.6C240.384 88.9667 241.618 92.5 241.618 97.2V103.8C241.618 108.5 240.384 112.05 237.918 114.45C235.484 116.817 231.918 118 227.218 118H212.818ZM224.018 112H227.318C229.984 112 231.934 111.3 233.168 109.9C234.401 108.5 235.018 106.533 235.018 104V97C235.018 94.4333 234.401 92.4667 233.168 91.1C231.934 89.7 229.984 89 227.318 89H224.018V112ZM258.626 118V95.6H262.85V118H258.626ZM267.063 118V95.6H275.095L279.543 115.12H280.119V95.6H284.279V118H276.247L271.799 98.48H271.223V118H267.063ZM302.384 118V83H308.984V118H302.384ZM315.568 118V83H328.118L335.068 113.5H335.968V83H342.468V118H329.918L322.968 87.5H322.068V118H315.568ZM349.064 118V83H371.064V89H355.664V97.45H369.864V103.45H355.664V118H349.064ZM389.08 118.7C384.68 118.7 381.18 117.5 378.58 115.1C375.98 112.667 374.68 109.2 374.68 104.7V96.3C374.68 91.8 375.98 88.35 378.58 85.95C381.18 83.5167 384.68 82.3 389.08 82.3C393.48 82.3 396.98 83.5167 399.58 85.95C402.18 88.35 403.48 91.8 403.48 96.3V104.7C403.48 109.2 402.18 112.667 399.58 115.1C396.98 117.5 393.48 118.7 389.08 118.7ZM389.08 112.8C391.546 112.8 393.463 112.083 394.83 110.65C396.196 109.217 396.88 107.3 396.88 104.9V96.1C396.88 93.7 396.196 91.7833 394.83 90.35C393.463 88.9167 391.546 88.2 389.08 88.2C386.646 88.2 384.73 88.9167 383.33 90.35C381.963 91.7833 381.28 93.7 381.28 96.1V104.9C381.28 107.3 381.963 109.217 383.33 110.65C384.73 112.083 386.646 112.8 389.08 112.8ZM409.269 118V83H424.469C426.669 83 428.585 83.3833 430.219 84.15C431.852 84.9167 433.119 86 434.019 87.4C434.919 88.8 435.369 90.45 435.369 92.35V92.95C435.369 95.05 434.869 96.75 433.869 98.05C432.869 99.35 431.635 100.3 430.169 100.9V101.8C431.502 101.867 432.535 102.333 433.269 103.2C434.002 104.033 434.369 105.15 434.369 106.55V118H427.769V107.5C427.769 106.7 427.552 106.05 427.119 105.55C426.719 105.05 426.035 104.8 425.069 104.8H415.869V118H409.269ZM415.869 98.8H423.769C425.335 98.8 426.552 98.3833 427.419 97.55C428.319 96.6833 428.769 95.55 428.769 94.15V93.65C428.769 92.25 428.335 91.1333 427.469 90.3C426.602 89.4333 425.369 89 423.769 89H415.869V98.8ZM440.861 118V83H453.111L459.161 113.5H460.061L466.111 83H478.361V118H471.961V87.85H471.061L465.061 118H454.161L448.161 87.85H447.261V118H440.861ZM482.552 118L491.752 83H503.252L512.452 118H505.652L503.752 110.3H491.252L489.352 118H482.552ZM492.802 104.2H502.202L497.952 87.15H497.052L492.802 104.2ZM521.519 118V89H511.319V83H538.319V89H528.119V118H521.519ZM542.814 118V83H549.414V118H542.814ZM569.297 118.7C564.964 118.7 561.531 117.5 558.997 115.1C556.464 112.667 555.197 109.2 555.197 104.7V96.3C555.197 91.8 556.464 88.35 558.997 85.95C561.531 83.5167 564.964 82.3 569.297 82.3C573.597 82.3 576.914 83.4833 579.247 85.85C581.614 88.1833 582.797 91.4 582.797 95.5V95.8H576.297V95.3C576.297 93.2333 575.714 91.5333 574.547 90.2C573.414 88.8667 571.664 88.2 569.297 88.2C566.964 88.2 565.131 88.9167 563.797 90.35C562.464 91.7833 561.797 93.7333 561.797 96.2V104.8C561.797 107.233 562.464 109.183 563.797 110.65C565.131 112.083 566.964 112.8 569.297 112.8C571.664 112.8 573.414 112.133 574.547 110.8C575.714 109.433 576.297 107.733 576.297 105.7V104.8H582.797V105.5C582.797 109.6 581.614 112.833 579.247 115.2C576.914 117.533 573.597 118.7 569.297 118.7ZM600.325 118.7C597.625 118.7 595.242 118.217 593.175 117.25C591.108 116.283 589.492 114.9 588.325 113.1C587.158 111.3 586.575 109.133 586.575 106.6V105.2H593.075V106.6C593.075 108.7 593.725 110.283 595.025 111.35C596.325 112.383 598.092 112.9 600.325 112.9C602.592 112.9 604.275 112.45 605.375 111.55C606.508 110.65 607.075 109.5 607.075 108.1C607.075 107.133 606.792 106.35 606.225 105.75C605.692 105.15 604.892 104.667 603.825 104.3C602.792 103.9 601.525 103.533 600.025 103.2L598.875 102.95C596.475 102.417 594.408 101.75 592.675 100.95C590.975 100.117 589.658 99.0333 588.725 97.7C587.825 96.3667 587.375 94.6333 587.375 92.5C587.375 90.3667 587.875 88.55 588.875 87.05C589.908 85.5167 591.342 84.35 593.175 83.55C595.042 82.7167 597.225 82.3 599.725 82.3C602.225 82.3 604.442 82.7333 606.375 83.6C608.342 84.4333 609.875 85.7 610.975 87.4C612.108 89.0667 612.675 91.1667 612.675 93.7V95.2H606.175V93.7C606.175 92.3667 605.908 91.3 605.375 90.5C604.875 89.6667 604.142 89.0667 603.175 88.7C602.208 88.3 601.058 88.1 599.725 88.1C597.725 88.1 596.242 88.4833 595.275 89.25C594.342 89.9833 593.875 91 593.875 92.3C593.875 93.1667 594.092 93.9 594.525 94.5C594.992 95.1 595.675 95.6 596.575 96C597.475 96.4 598.625 96.75 600.025 97.05L601.175 97.3C603.675 97.8333 605.842 98.5167 607.675 99.35C609.542 100.183 610.992 101.283 612.025 102.65C613.058 104.017 613.575 105.767 613.575 107.9C613.575 110.033 613.025 111.917 611.925 113.55C610.858 115.15 609.325 116.417 607.325 117.35C605.358 118.25 603.025 118.7 600.325 118.7Z" fill="black"/>
</svg>
